<svg xmlns="http://www.w3.org/2000/svg" viewBox="0 0 32 32"><g data-name="Layer 5"><rect width="20" height="20" x="12" y="9" fill="#ffab91" rx="4.06" ry="4.06"/><path fill="#00254a" d="M21,2a11,11,0,0,0-7.11,2.31A13.4,13.4,0,0,0,11,4C6,4,2,6.64,2,10V24c0,3.36,4,6,9,6a10.92,10.92,0,0,0,7.15-2.33A12.77,12.77,0,0,0,21,28c5.05,0,9-2.64,9-6V8C30,4.64,26.05,2,21,2Zm7,13c0,2.17-3.21,4-7,4-.34,0-.67,0-1,0V14c.33,0,.67,0,1,0a11.16,11.16,0,0,0,7-2.19ZM4,13.81A11.16,11.16,0,0,0,11,16a11.16,11.16,0,0,0,7-2.19V17c0,2.17-3.21,4-7,4s-7-1.83-7-4ZM21,4c3.79,0,7,1.83,7,4s-3.21,4-7,4c-.34,0-.67,0-1,0V10c0-2-1.47-3.82-3.75-4.9A10.25,10.25,0,0,1,21,4ZM11,6c3.79,0,7,1.83,7,4s-3.21,4-7,4-7-1.83-7-4S7.21,6,11,6ZM4,24V20.81A11.16,11.16,0,0,0,11,23a11.16,11.16,0,0,0,7-2.19V24c0,2.17-3.21,4-7,4S4,26.17,4,24Zm17,2a11.8,11.8,0,0,1-1.46-.09A4.23,4.23,0,0,0,20,24V21c.33,0,.67,0,1,0a11.16,11.16,0,0,0,7-2.19V22C28,24.17,24.79,26,21,26Z"/></g></svg>